<svg xmlns="http://www.w3.org/2000/svg" viewBox="0 0 512 512">
  <defs>
    <linearGradient id="bg" x1="0%" y1="0%" x2="100%" y2="100%">
      <stop offset="0%" style="stop-color:#3b82f6"/>
      <stop offset="100%" style="stop-color:#1d4ed8"/>
    </linearGradient>
  </defs>
  <!-- Background -->
  <rect width="512" height="512" rx="96" fill="url(#bg)"/>

  <!-- Electrical Panel Box -->
  <rect x="120" y="100" width="272" height="312" rx="16" fill="#1e293b" stroke="#475569" stroke-width="4"/>

  <!-- Panel Header -->
  <rect x="136" y="116" width="240" height="40" rx="8" fill="#334155"/>
  <text x="256" y="144" font-family="Arial, sans-serif" font-size="20" font-weight="bold" fill="#94a3b8" text-anchor="middle">MAIN</text>

  <!-- Breaker Rows (Left Side) -->
  <rect x="144" y="172" width="56" height="24" rx="4" fill="#22c55e"/>
  <rect x="144" y="204" width="56" height="24" rx="4" fill="#22c55e"/>
  <rect x="144" y="236" width="56" height="24" rx="4" fill="#22c55e"/>
  <rect x="144" y="268" width="56" height="24" rx="4" fill="#ef4444"/>
  <rect x="144" y="300" width="56" height="24" rx="4" fill="#22c55e"/>
  <rect x="144" y="332" width="56" height="24" rx="4" fill="#22c55e"/>
  <rect x="144" y="364" width="56" height="24" rx="4" fill="#22c55e"/>

  <!-- Breaker Rows (Right Side) -->
  <rect x="312" y="172" width="56" height="24" rx="4" fill="#22c55e"/>
  <rect x="312" y="204" width="56" height="24" rx="4" fill="#22c55e"/>
  <rect x="312" y="236" width="56" height="24" rx="4" fill="#22c55e"/>
  <rect x="312" y="268" width="56" height="24" rx="4" fill="#22c55e"/>
  <rect x="312" y="300" width="56" height="24" rx="4" fill="#22c55e"/>
  <rect x="312" y="332" width="56" height="24" rx="4" fill="#22c55e"/>
  <rect x="312" y="364" width="56" height="24" rx="4" fill="#22c55e"/>

  <!-- Center Divider -->
  <rect x="208" y="172" width="96" height="216" rx="8" fill="#0f172a"/>
  <line x1="256" y1="180" x2="256" y2="380" stroke="#475569" stroke-width="2"/>

  <!-- Circuit Trace Lines -->
  <path d="M200 184 L220 184 L220 220 L280 220" stroke="#60a5fa" stroke-width="3" fill="none" stroke-linecap="round"/>
  <path d="M312 184 L292 184 L292 250 L240 250" stroke="#60a5fa" stroke-width="3" fill="none" stroke-linecap="round"/>
  <path d="M200 280 L230 280 L230 320 L292 320 L292 280 L312 280" stroke="#fbbf24" stroke-width="3" fill="none" stroke-linecap="round"/>

  <!-- Outlet/Device Markers -->
  <circle cx="280" cy="220" r="8" fill="#60a5fa"/>
  <circle cx="240" cy="250" r="8" fill="#60a5fa"/>
  <circle cx="260" cy="300" r="8" fill="#fbbf24"/>
</svg>
